# xmcd
#
# Track frame offsets:
#	150
#	14696
#	31582
#	45680
#	58703
#	74671
#	88524
#	105235
#	123001
#	138017
#	156388
#	171530
#	184496
#	204138
#
# Disc length: 2915 seconds
#
# Revision: 2
# Processed by: cddbd v1.5.2PL0 Copyright (c) Steve Scherf et al.
# Submitted via: audiograbber 1.83.01
#
DISCID=bb0b610e
DTITLE=Star Disc - SD 138
DYEAR=1900
DGENRE=Karaoke
TTITLE0=Garth Brooks,  - Good Ride Cowboy
TTITLE1=Carrie Underwood,  - Jesus Take The Wheel
TTITLE2=Montgomery Gentry,  - She Don't Tell Me To
TTITLE3=Gretchen Wilson,  - I Don't Feel Like Loving You Today
TTITLE4=Sara Evans,  - Cheatin'
TTITLE5=Jason Aldean,  - Why
TTITLE6=Trisha Yearwood,  - Trying To Love You
TTITLE7=Rocky Lynne,  - Lipstick
TTITLE8=Lila McCann,  - I'm Amazed
TTITLE9=Tracy Lawrence,  - If I Don't Make It Back
TTITLE10=Shannon Brown,  - Corn Fed
TTITLE11=Jace Everett,  - Bad Things
TTITLE12=Dixie Chicks - I Hope
TTITLE13=Trent Tomlinson,  - Drunker Than Me
EXTD=
EXTT0=
EXTT1=
EXTT2=
EXTT3=
EXTT4=
EXTT5=
EXTT6=
EXTT7=
EXTT8=
EXTT9=
EXTT10=
EXTT11=
EXTT12=
EXTT13=
PLAYORDER=
